#!OML:ASF H:\LiuWeirdWalks\Patient Classification 1\Patient 1\Session 1\male.ASF
:FULLY-SPECIFIED
:DEGREES
343
root 1.41699 17.851 0.596305 0.649333 0.634186 2.12969
lowerback 11.2188 -0.38958 -4.34163
upperback 0.429892 -0.964825 1.79774
thorax -5.74732 -0.333853 4.50368
lowerneck -19.208 2.56095 5.26316
upperneck 9.51665 2.46312 -2.67448
head 6.0935 1.17128 -1.44141
rclavicle -1.63997e-014 1.59028e-014
rhumerus -38.4772 -19.1022 -66.9142
rradius 17.0965
rwrist 8.20361
rhand -12.5233 -4.4332
rfingers 7.12502
rthumb 13.5527 -33.9721
lclavicle -1.63997e-014 1.59028e-014
lhumerus -33.6495 -9.26596 85.9512
lradius 47.2942
lwrist 8.69081
lhand -10.9148 -3.2381
lfingers 7.12502
lthumb 15.1025 26.1909
rfemur -22.8402 -2.12886 12.1974
rtibia 75.75
rfoot -0.826993 -19.7967
rtoes -3.06576
lfemur -19.5131 -3.83272 -21.7575
ltibia 36.2245
lfoot -6.90453 11.5502
ltoes -10.0569
344
root 1.43757 17.8698 0.762282 0.628606 0.461038 2.6349
lowerback 11.2596 -0.477246 -4.83278
upperback 0.443838 -1.14862 1.75618
thorax -5.72726 -0.412576 4.76885
lowerneck -19.1251 2.68285 5.40736
upperneck 9.45928 2.60075 -2.72481
head 6.06994 1.23943 -1.46634
rclavicle -9.44227e-016 7.95139e-016
rhumerus -38.7796 -19.2415 -66.5703
rradius 17.3908
rwrist 6.72173
rhand -13.0221 -4.8183
rfingers 7.12502
rthumb 13.0719 -34.3887
lclavicle -9.44227e-016 7.95139e-016
lhumerus -33.5668 -9.86778 85.9461
lradius 48.1209
lwrist 8.98985
lhand -11.4076 -3.41733
lfingers 7.12502
lthumb 14.6278 26.0468
rfemur -24.4108 -2.1326 11.6689
rtibia 75.3265
rfoot -1.686 -19.3061
rtoes -3.68915
lfemur -18.5695 -3.9202 -22.4396
ltibia 35.6945
lfoot -7.06897 11.8975
ltoes -9.99436
345
root 1.4561 17.8826 0.92694 0.62605 0.316994 3.0961
lowerback 11.2833 -0.570461 -5.2855
upperback 0.458152 -1.33362 1.72625
thorax -5.6948 -0.493357 5.02417
lowerneck -19.04 2.79037 5.5442
upperneck 9.38261 2.72217 -2.78283
head 6.03941 1.2987 -1.49443
rclavicle -2.15681e-014 7.15625e-015
rhumerus -39.0485 -19.1547 -66.397
rradius 17.7857
rwrist 5.18453
rhand -13.5186 -5.12662
rfingers 7.12502
rthumb 12.5933 -34.727
lclavicle -2.15681e-014 7.15625e-015
lhumerus -33.4795 -10.4144 85.9036
lradius 48.9858
lwrist 9.27125
lhand -11.8774 -3.60053
lfingers 7.12502
lthumb 14.1752 25.8958
rfemur -25.9395 -2.11645 11.2176
rtibia 74.7138
rfoot -2.52326 -18.8528
rtoes -4.24389
lfemur -17.6951 -3.99681 -23.0684
ltibia 35.239
lfoot -7.26744 12.2233
ltoes -9.94201
346
root 1.47332 17.8905 1.09065 0.639806 0.19689 3.50238
lowerback 11.2891 -0.66821 -5.68206
upperback 0.473865 -1.51569 1.71028
thorax -5.64941 -0.574724 5.26114
lowerneck -18.9431 2.87355 5.64364
upperneck 9.30864 2.81899 -2.82353
head 6.00628 1.3462 -1.51379
rclavicle 4.9895e-014 -2.38542e-015
rhumerus -39.2896 -18.9178 -66.3413
rradius 18.2421
rwrist 3.72338
rhand -14.0001 -5.27676
rfingers 7.12502
rthumb 12.129 -34.9052
lclavicle 4.9895e-014 -2.38542e-015
lhumerus -33.3956 -10.9138 85.8245
lradius 49.8866
lwrist 9.51949
lhand -12.3416 -3.8207
lfingers 7.12502
lthumb 13.7278 25.7065
rfemur -27.4116 -2.07935 10.8463
rtibia 73.9055
rfoot -3.35426 -18.4503
rtoes -4.86136
lfemur -16.8794 -4.06303 -23.6359
ltibia 34.8537
lfoot -7.5136 12.5442
ltoes -9.88484
347
root 1.4897 17.8944 1.25408 0.665222 0.100323 3.85569
lowerback 11.2843 -0.76814 -6.02053
upperback 0.489918 -1.69172 1.70752
thorax -5.59737 -0.654992 5.47753
lowerneck -18.8355 2.94518 5.74187
upperneck 9.22448 2.9032 -2.87741
head 5.96797 1.3865 -1.53873
rclavicle -2.95195e-014 -2.38542e-015
rhumerus -39.5241 -18.4813 -66.425
rradius 18.7962
rwrist 2.27569
rhand -14.4422 -5.32798
rfingers 7.12502
rthumb 11.7027 -34.9811
lclavicle -2.95195e-014 -2.38542e-015
lhumerus -33.2915 -11.3641 85.7118
lradius 50.7839
lwrist 9.72299
lhand -12.7407 -4.04193
lfingers 7.12502
lthumb 13.3431 25.5109
rfemur -28.807 -2.03534 10.5438
rtibia 72.8946
rfoot -4.1551 -18.0986
rtoes -5.4348
lfemur -16.1052 -4.11275 -24.1473
ltibia 34.5232
lfoot -7.80166 12.8566
ltoes -9.83491
